<svg width="35" height="36" viewBox="0 0 35 36" fill="none" xmlns="http://www.w3.org/2000/svg">
<path d="M26.6474 13.6362H18.1009C17.4334 13.6362 16.8799 13.0827 16.8799 12.4153C16.8799 11.7478 17.4334 11.1943 18.1009 11.1943H26.6474C27.3148 11.1943 27.8683 11.7478 27.8683 12.4153C27.8683 13.0827 27.3311 13.6362 26.6474 13.6362Z" fill="#888888"/>
<path d="M9.55675 14.8729C9.24745 14.8729 8.93814 14.7589 8.69396 14.5147L7.47303 13.2938C7.00093 12.8218 7.00093 12.0404 7.47303 11.5683C7.94512 11.0962 8.72652 11.0962 9.19861 11.5683L9.55675 11.9264L12.3567 9.12641C12.8288 8.65432 13.6102 8.65432 14.0823 9.12641C14.5543 9.5985 14.5543 10.3799 14.0823 10.852L10.4195 14.5147C10.1916 14.7427 9.88233 14.8729 9.55675 14.8729Z" fill="#888888"/>
<path d="M26.6474 25.0315H18.1009C17.4334 25.0315 16.8799 24.478 16.8799 23.8105C16.8799 23.1431 17.4334 22.5896 18.1009 22.5896H26.6474C27.3148 22.5896 27.8683 23.1431 27.8683 23.8105C27.8683 24.478 27.3311 25.0315 26.6474 25.0315Z" fill="#888888"/>
<path d="M9.55675 26.2682C9.24745 26.2682 8.93814 26.1542 8.69396 25.91L7.47303 24.6891C7.00093 24.217 7.00093 23.4356 7.47303 22.9635C7.94512 22.4914 8.72652 22.4914 9.19861 22.9635L9.55675 23.3217L12.3567 20.5217C12.8288 20.0496 13.6102 20.0496 14.0823 20.5217C14.5543 20.9938 14.5543 21.7752 14.0823 22.2473L10.4195 25.91C10.1916 26.138 9.88233 26.2682 9.55675 26.2682Z" fill="#888888"/>
<path d="M22.3837 35.0104H12.6163C3.77674 35.0104 0 31.2336 0 22.3941V12.6267C0 3.78712 3.77674 0.010376 12.6163 0.010376H22.3837C31.2233 0.010376 35 3.78712 35 12.6267V22.3941C35 31.2336 31.2233 35.0104 22.3837 35.0104ZM12.6163 2.45224C5.11163 2.45224 2.44186 5.122 2.44186 12.6267V22.3941C2.44186 29.8987 5.11163 32.5685 12.6163 32.5685H22.3837C29.8884 32.5685 32.5581 29.8987 32.5581 22.3941V12.6267C32.5581 5.122 29.8884 2.45224 22.3837 2.45224H12.6163Z" fill="#888888"/>
</svg>
