<svg width="41" height="41" viewBox="0 0 41 41" fill="none" xmlns="http://www.w3.org/2000/svg">
<path d="M6.83331 20.5C6.83331 16.15 6.83331 13.975 7.56937 12.2687C8.47891 10.1601 10.16 8.47897 12.2686 7.56943C13.975 6.83337 16.15 6.83337 20.5 6.83337V6.83337C24.85 6.83337 27.025 6.83337 28.7314 7.56943C30.8399 8.47897 32.5211 10.1601 33.4306 12.2687C34.1666 13.975 34.1666 16.15 34.1666 20.5V30.1667C34.1666 32.0523 34.1666 32.9951 33.5809 33.5809C32.9951 34.1667 32.0523 34.1667 30.1666 34.1667H20.5C16.15 34.1667 13.975 34.1667 12.2686 33.4307C10.16 32.5211 8.47891 30.84 7.56937 28.7314C6.83331 27.0251 6.83331 24.8501 6.83331 20.5V20.5Z" stroke="#888888" stroke-width="3"/>
<path d="M15.375 18.7916L25.625 18.7916" stroke="#888888" stroke-width="2" stroke-linecap="round" stroke-linejoin="round"/>
<path d="M20.5 25.625H25.625" stroke="#888888" stroke-width="2" stroke-linecap="round" stroke-linejoin="round"/>
</svg>
