<svg width="29" height="32" viewBox="0 0 29 32" fill="none" xmlns="http://www.w3.org/2000/svg">
<path d="M2.09515 9.4668L14.4929 16.7859L26.8065 9.50972" stroke="#888888" stroke-width="2" stroke-linecap="round" stroke-linejoin="round"/>
<path d="M14.493 29.7626V16.7715" stroke="#888888" stroke-width="2" stroke-linecap="round" stroke-linejoin="round"/>
<path d="M11.5866 2.36256L4.08891 6.6166C2.39 7.57625 1 9.98252 1 11.9591V20.0517C1 22.0283 2.39 24.4346 4.08891 25.3943L11.5866 29.6483C13.1872 30.5506 15.8128 30.5506 17.4134 29.6483L24.9111 25.3943C26.61 24.4346 28 22.0283 28 20.0517V11.9591C28 9.98252 26.61 7.57625 24.9111 6.6166L17.4134 2.36256C15.7987 1.44588 13.1872 1.44588 11.5866 2.36256Z" stroke="#888888" stroke-width="2" stroke-linecap="round" stroke-linejoin="round"/>
<path d="M21.5133 17.7743V12.532L8.18878 4.68286" stroke="#888888" stroke-width="2" stroke-linecap="round" stroke-linejoin="round"/>
</svg>
