<svg width="31" height="34" viewBox="0 0 31 34" fill="none" xmlns="http://www.w3.org/2000/svg">
<path d="M3.09515 10.4668L15.4929 17.7859L27.8065 10.5097" stroke="#888888" stroke-width="4" stroke-linecap="round" stroke-linejoin="round"/>
<path d="M15.493 30.7626V17.7715" stroke="#888888" stroke-width="4" stroke-linecap="round" stroke-linejoin="round"/>
<path d="M12.5866 3.36256L5.08891 7.6166C3.39 8.57625 2 10.9825 2 12.9591V21.0517C2 23.0283 3.39 25.4346 5.08891 26.3943L12.5866 30.6483C14.1872 31.5506 16.8128 31.5506 18.4134 30.6483L25.9111 26.3943C27.61 25.4346 29 23.0283 29 21.0517V12.9591C29 10.9825 27.61 8.57625 25.9111 7.6166L18.4134 3.36256C16.7987 2.44588 14.1872 2.44588 12.5866 3.36256Z" stroke="#888888" stroke-width="4" stroke-linecap="round" stroke-linejoin="round"/>
<path d="M22.5133 18.7743V13.532L9.18878 5.68286" stroke="#888888" stroke-width="4" stroke-linecap="round" stroke-linejoin="round"/>
</svg>
