<svg width="41" height="41" viewBox="0 0 41 41" fill="none" xmlns="http://www.w3.org/2000/svg">
<path d="M3.41669 20.5L2.63582 19.8753L2.13606 20.5L2.63582 21.1247L3.41669 20.5ZM18.7917 21.5C19.344 21.5 19.7917 21.0523 19.7917 20.5C19.7917 19.9477 19.344 19.5 18.7917 19.5V21.5ZM9.46915 11.3336L2.63582 19.8753L4.19756 21.1247L11.0309 12.583L9.46915 11.3336ZM2.63582 21.1247L9.46915 29.6663L11.0309 28.417L4.19756 19.8753L2.63582 21.1247ZM3.41669 21.5H18.7917V19.5H3.41669V21.5Z" fill="#888888"/>
<path d="M17.0833 13.8921V10.2219C17.0833 8.60352 17.0833 7.79435 17.5573 7.23486C18.0312 6.67537 18.8294 6.54234 20.4257 6.27629L30.5969 4.58109C33.84 4.04057 35.4616 3.77031 36.5224 4.66901C37.5833 5.5677 37.5833 7.21162 37.5833 10.4994V30.5006C37.5833 33.7884 37.5833 35.4323 36.5224 36.331C35.4616 37.2297 33.84 36.9595 30.5969 36.419L20.4257 34.7238C18.8294 34.4577 18.0312 34.3247 17.5573 33.7652C17.0833 33.2057 17.0833 32.3965 17.0833 30.7782V27.446" stroke="#888888" stroke-width="2"/>
</svg>
